<svg xmlns="http://www.w3.org/2000/svg" xmlns:xlink="http://www.w3.org/1999/xlink" id="&#x421;&#x43B;&#x43E;&#x439;_1" x="0px" y="0px" viewBox="0 0 210 70" style="enable-background:new 0 0 210 70;" xml:space="preserve"><style type="text/css">	.st0{fill:url(#SVGID_1_);}	.st1{fill:url(#SVGID_00000176039880902201278140000015813016587825713309_);}	.st2{fill:url(#SVGID_00000140702084031596098960000015520093317123084981_);}	.st3{fill:url(#SVGID_00000146477214852059165900000012127934806625577601_);}	.st4{fill:url(#SVGID_00000046300379836505691880000016444951138513075903_);}	.st5{fill:url(#SVGID_00000155115123638128815900000007838653335938615686_);}	.st6{fill:url(#SVGID_00000101081088262949069030000000800660866729396889_);}	.st7{fill:url(#SVGID_00000181803564363081821620000000081828009729443504_);}	.st8{fill:url(#SVGID_00000094616854264869310790000011225186264417621676_);}	.st9{fill:url(#SVGID_00000098929190488976157980000008962331648066372261_);}	.st10{fill:url(#SVGID_00000147206466005372848640000017640302826918171568_);}	.st11{fill:url(#SVGID_00000128454245909927824210000014284183635475628693_);}	.st12{fill:url(#SVGID_00000052795934544369529530000013634975997448708751_);}	.st13{fill:url(#SVGID_00000062914896581483847040000008571123399371609257_);}	.st14{fill:url(#SVGID_00000034090613659890498650000001791139683540983999_);}	.st15{fill:url(#SVGID_00000018238114011925875430000016436458362159099288_);}	.st16{fill:url(#SVGID_00000018210935534975103660000009896909067653051829_);}	.st17{fill:url(#SVGID_00000057148643431927745890000005144757141617887419_);}	.st18{fill:url(#SVGID_00000132785943038866072240000001933728660287668667_);}	.st19{fill:url(#SVGID_00000135661148052248717030000008458618169860736684_);}	.st20{fill:url(#SVGID_00000182514932669369450010000000497529897563638455_);}	.st21{fill:url(#SVGID_00000047762418106503160420000000453517788678964378_);}	.st22{fill:url(#SVGID_00000013193709988769676730000018032263717976392599_);}	.st23{fill:url(#SVGID_00000076563309599835332640000002563629806833761409_);}	.st24{fill:url(#SVGID_00000052070744906678337880000007256301769064902309_);}	.st25{fill:#005CA9;}	.st26{fill:url(#SVGID_00000101087799424667127780000006095314157982466694_);}	.st27{fill:#004F9F;}	.st28{fill:url(#SVGID_00000085957835021143467770000004342206847870421130_);}	.st29{fill:url(#SVGID_00000168827050808455775530000003889722203406249613_);}	.st30{fill:url(#SVGID_00000159465638572751311910000011730370799567364019_);}	.st31{fill:url(#SVGID_00000008844371552674551030000008173390867433421724_);}	.st32{fill:url(#SVGID_00000117659162757294272200000018127465787377174151_);}	.st33{fill:url(#SVGID_00000179620995350552566450000001126961440123965835_);}</style><g>	<linearGradient id="SVGID_1_" gradientUnits="userSpaceOnUse" x1="202.9436" y1="41.7268" x2="202.6907" y2="43.3198">		<stop offset="0" style="stop-color:#0069B4"></stop>		<stop offset="0.508" style="stop-color:#005DAA"></stop>		<stop offset="1" style="stop-color:#004F9F"></stop>	</linearGradient>	<rect x="201.4" y="41.8" class="st0" width="2.8" height="1.9"></rect>			<linearGradient id="SVGID_00000064344905548740893000000016854945423754355103_" gradientUnits="userSpaceOnUse" x1="143.9412" y1="50.1141" x2="143.4079" y2="53.474">		<stop offset="0" style="stop-color:#0069B4"></stop>		<stop offset="0.508" style="stop-color:#005DAA"></stop>		<stop offset="1" style="stop-color:#004F9F"></stop>	</linearGradient>	<rect x="142.5" y="50" style="fill:url(#SVGID_00000064344905548740893000000016854945423754355103_);" width="2.1" height="4.6"></rect>			<linearGradient id="SVGID_00000101801398339786532030000004862840621250511031_" gradientUnits="userSpaceOnUse" x1="151.2553" y1="50.1141" x2="150.722" y2="53.474">		<stop offset="0" style="stop-color:#0069B4"></stop>		<stop offset="0.508" style="stop-color:#005DAA"></stop>		<stop offset="1" style="stop-color:#004F9F"></stop>	</linearGradient>	<rect x="149.8" y="50" style="fill:url(#SVGID_00000101801398339786532030000004862840621250511031_);" width="2.1" height="4.6"></rect>			<linearGradient id="SVGID_00000009566177307441045020000008993715657847440827_" gradientUnits="userSpaceOnUse" x1="155.6169" y1="50.1141" x2="155.0836" y2="53.474">		<stop offset="0" style="stop-color:#0069B4"></stop>		<stop offset="0.508" style="stop-color:#005DAA"></stop>		<stop offset="1" style="stop-color:#004F9F"></stop>	</linearGradient>	<rect x="154.2" y="50" style="fill:url(#SVGID_00000009566177307441045020000008993715657847440827_);" width="2.1" height="4.6"></rect>			<linearGradient id="SVGID_00000123442346382880312590000003274134732903874733_" gradientUnits="userSpaceOnUse" x1="151.2553" y1="59.5059" x2="150.722" y2="62.8658">		<stop offset="0" style="stop-color:#0069B4"></stop>		<stop offset="0.508" style="stop-color:#005DAA"></stop>		<stop offset="1" style="stop-color:#004F9F"></stop>	</linearGradient>			<rect x="149.8" y="59.4" style="fill:url(#SVGID_00000123442346382880312590000003274134732903874733_);" width="2.1" height="4.6"></rect>			<linearGradient id="SVGID_00000084510152777518964600000014758304001418139012_" gradientUnits="userSpaceOnUse" x1="160.7166" y1="50.1141" x2="160.1833" y2="53.474">		<stop offset="0" style="stop-color:#0069B4"></stop>		<stop offset="0.508" style="stop-color:#005DAA"></stop>		<stop offset="1" style="stop-color:#004F9F"></stop>	</linearGradient>	<rect x="159.3" y="50" style="fill:url(#SVGID_00000084510152777518964600000014758304001418139012_);" width="2.1" height="4.6"></rect>			<linearGradient id="SVGID_00000056389584813901071790000009470383351236830098_" gradientUnits="userSpaceOnUse" x1="165.0782" y1="50.1141" x2="164.5449" y2="53.474">		<stop offset="0" style="stop-color:#0069B4"></stop>		<stop offset="0.508" style="stop-color:#005DAA"></stop>		<stop offset="1" style="stop-color:#004F9F"></stop>	</linearGradient>	<rect x="163.7" y="50" style="fill:url(#SVGID_00000056389584813901071790000009470383351236830098_);" width="2.1" height="4.6"></rect>			<linearGradient id="SVGID_00000121965128948580280130000013822245301252058276_" gradientUnits="userSpaceOnUse" x1="160.7166" y1="59.5059" x2="160.1833" y2="62.8658">		<stop offset="0" style="stop-color:#0069B4"></stop>		<stop offset="0.508" style="stop-color:#005DAA"></stop>		<stop offset="1" style="stop-color:#004F9F"></stop>	</linearGradient>			<rect x="159.3" y="59.4" style="fill:url(#SVGID_00000121965128948580280130000013822245301252058276_);" width="2.1" height="4.6"></rect>			<linearGradient id="SVGID_00000016050452876452073190000009413439252906658230_" gradientUnits="userSpaceOnUse" x1="165.0782" y1="59.5059" x2="164.5449" y2="62.8658">		<stop offset="0" style="stop-color:#0069B4"></stop>		<stop offset="0.508" style="stop-color:#005DAA"></stop>		<stop offset="1" style="stop-color:#004F9F"></stop>	</linearGradient>			<rect x="163.7" y="59.4" style="fill:url(#SVGID_00000016050452876452073190000009413439252906658230_);" width="2.1" height="4.6"></rect>			<linearGradient id="SVGID_00000014605265461483226070000008228954654460112531_" gradientUnits="userSpaceOnUse" x1="199.3873" y1="55.2478" x2="199.0026" y2="57.671">		<stop offset="0" style="stop-color:#0069B4"></stop>		<stop offset="0.508" style="stop-color:#005DAA"></stop>		<stop offset="1" style="stop-color:#004F9F"></stop>	</linearGradient>	<path style="fill:url(#SVGID_00000014605265461483226070000008228954654460112531_);" d="M195.7,58h7v-2.4h-7V58z M196,56h6.3v1.7  H196V56z"></path>			<linearGradient id="SVGID_00000160153050858005578060000007594062687234597532_" gradientUnits="userSpaceOnUse" x1="175.1528" y1="49.7191" x2="174.6051" y2="53.1692">		<stop offset="0" style="stop-color:#0069B4"></stop>		<stop offset="0.508" style="stop-color:#005DAA"></stop>		<stop offset="1" style="stop-color:#004F9F"></stop>	</linearGradient>			<rect x="173.7" y="49.6" style="fill:url(#SVGID_00000160153050858005578060000007594062687234597532_);" width="2.1" height="4.7"></rect>			<linearGradient id="SVGID_00000121988510711223846060000004278056391043386808_" gradientUnits="userSpaceOnUse" x1="179.5144" y1="49.7191" x2="178.9667" y2="53.1692">		<stop offset="0" style="stop-color:#0069B4"></stop>		<stop offset="0.508" style="stop-color:#005DAA"></stop>		<stop offset="1" style="stop-color:#004F9F"></stop>	</linearGradient>			<rect x="178.1" y="49.6" style="fill:url(#SVGID_00000121988510711223846060000004278056391043386808_);" width="2.1" height="4.7"></rect>			<linearGradient id="SVGID_00000003825932658618020170000015364945487253933215_" gradientUnits="userSpaceOnUse" x1="175.1528" y1="59.3817" x2="174.6051" y2="62.8318">		<stop offset="0" style="stop-color:#0069B4"></stop>		<stop offset="0.508" style="stop-color:#005DAA"></stop>		<stop offset="1" style="stop-color:#004F9F"></stop>	</linearGradient>			<rect x="173.7" y="59.3" style="fill:url(#SVGID_00000003825932658618020170000015364945487253933215_);" width="2.1" height="4.7"></rect>			<linearGradient id="SVGID_00000132053994444047101240000011340416936525950091_" gradientUnits="userSpaceOnUse" x1="179.5144" y1="59.3817" x2="178.9667" y2="62.8318">		<stop offset="0" style="stop-color:#0069B4"></stop>		<stop offset="0.508" style="stop-color:#005DAA"></stop>		<stop offset="1" style="stop-color:#004F9F"></stop>	</linearGradient>			<rect x="178.1" y="59.3" style="fill:url(#SVGID_00000132053994444047101240000011340416936525950091_);" width="2.1" height="4.7"></rect>			<linearGradient id="SVGID_00000061460209687941181080000001065013422616840835_" gradientUnits="userSpaceOnUse" x1="196.9608" y1="49.7191" x2="196.4132" y2="53.1692">		<stop offset="0" style="stop-color:#0069B4"></stop>		<stop offset="0.508" style="stop-color:#005DAA"></stop>		<stop offset="1" style="stop-color:#004F9F"></stop>	</linearGradient>			<rect x="195.5" y="49.6" style="fill:url(#SVGID_00000061460209687941181080000001065013422616840835_);" width="2.1" height="4.7"></rect>			<linearGradient id="SVGID_00000049913196024666953060000011326023179842977423_" gradientUnits="userSpaceOnUse" x1="201.3224" y1="49.7191" x2="200.7748" y2="53.1692">		<stop offset="0" style="stop-color:#0069B4"></stop>		<stop offset="0.508" style="stop-color:#005DAA"></stop>		<stop offset="1" style="stop-color:#004F9F"></stop>	</linearGradient>			<rect x="199.9" y="49.6" style="fill:url(#SVGID_00000049913196024666953060000011326023179842977423_);" width="2.1" height="4.7"></rect>			<linearGradient id="SVGID_00000017482499375108228620000013306564974449396124_" gradientUnits="userSpaceOnUse" x1="196.9608" y1="59.3817" x2="196.4132" y2="62.8318">		<stop offset="0" style="stop-color:#0069B4"></stop>		<stop offset="0.508" style="stop-color:#005DAA"></stop>		<stop offset="1" style="stop-color:#004F9F"></stop>	</linearGradient>			<rect x="195.5" y="59.3" style="fill:url(#SVGID_00000017482499375108228620000013306564974449396124_);" width="2.1" height="4.7"></rect>			<linearGradient id="SVGID_00000151509595661509664400000005469629834773991836_" gradientUnits="userSpaceOnUse" x1="188.2376" y1="49.7191" x2="187.69" y2="53.1692">		<stop offset="0" style="stop-color:#0069B4"></stop>		<stop offset="0.508" style="stop-color:#005DAA"></stop>		<stop offset="1" style="stop-color:#004F9F"></stop>	</linearGradient>			<rect x="186.8" y="49.6" style="fill:url(#SVGID_00000151509595661509664400000005469629834773991836_);" width="2.1" height="4.7"></rect>			<linearGradient id="SVGID_00000152245117542723174360000016454804601530922388_" gradientUnits="userSpaceOnUse" x1="188.2376" y1="59.3817" x2="187.69" y2="62.8318">		<stop offset="0" style="stop-color:#0069B4"></stop>		<stop offset="0.508" style="stop-color:#005DAA"></stop>		<stop offset="1" style="stop-color:#004F9F"></stop>	</linearGradient>			<rect x="186.8" y="59.3" style="fill:url(#SVGID_00000152245117542723174360000016454804601530922388_);" width="2.1" height="4.7"></rect>			<linearGradient id="SVGID_00000041278581784673242180000005326175166425380273_" gradientUnits="userSpaceOnUse" x1="201.3224" y1="59.3817" x2="200.7748" y2="62.8318">		<stop offset="0" style="stop-color:#0069B4"></stop>		<stop offset="0.508" style="stop-color:#005DAA"></stop>		<stop offset="1" style="stop-color:#004F9F"></stop>	</linearGradient>			<rect x="199.9" y="59.3" style="fill:url(#SVGID_00000041278581784673242180000005326175166425380273_);" width="2.1" height="4.7"></rect>			<linearGradient id="SVGID_00000121242077938938941640000012088885558399324571_" gradientUnits="userSpaceOnUse" x1="72.5375" y1="62.077" x2="72.2233" y2="64.0567">		<stop offset="0" style="stop-color:#0069B4"></stop>		<stop offset="0.508" style="stop-color:#005DAA"></stop>		<stop offset="1" style="stop-color:#004F9F"></stop>	</linearGradient>			<rect x="71.3" y="62.1" style="fill:url(#SVGID_00000121242077938938941640000012088885558399324571_);" width="2.1" height="2.5"></rect>			<linearGradient id="SVGID_00000146458058892383271730000013961879573634863746_" gradientUnits="userSpaceOnUse" x1="132.9962" y1="62.2113" x2="132.6819" y2="64.1909">		<stop offset="0" style="stop-color:#0069B4"></stop>		<stop offset="0.508" style="stop-color:#005DAA"></stop>		<stop offset="1" style="stop-color:#004F9F"></stop>	</linearGradient>			<rect x="131.7" y="62.2" style="fill:url(#SVGID_00000146458058892383271730000013961879573634863746_);" width="2.1" height="2.5"></rect>			<linearGradient id="SVGID_00000025426275647855474970000012993970059137670587_" gradientUnits="userSpaceOnUse" x1="177.3469" y1="55.2478" x2="176.9622" y2="57.671">		<stop offset="0" style="stop-color:#0069B4"></stop>		<stop offset="0.508" style="stop-color:#005DAA"></stop>		<stop offset="1" style="stop-color:#004F9F"></stop>	</linearGradient>	<path style="fill:url(#SVGID_00000025426275647855474970000012993970059137670587_);" d="M180.6,55.6h-7V58h7V55.6z M180.2,57.7  H174V56h6.3V57.7z"></path>			<linearGradient id="SVGID_00000035527234127151815910000017893534018509853324_" gradientUnits="userSpaceOnUse" x1="188.0616" y1="55.5524" x2="187.7517" y2="57.5044">		<stop offset="0" style="stop-color:#0069B4"></stop>		<stop offset="0.508" style="stop-color:#005DAA"></stop>		<stop offset="1" style="stop-color:#004F9F"></stop>	</linearGradient>	<path style="fill:url(#SVGID_00000035527234127151815910000017893534018509853324_);" d="M189.2,55.6h-2.6V58h2.6V55.6z   M188.8,57.7h-1.9V56h1.9V57.7z"></path>			<linearGradient id="SVGID_00000076561373918467977600000003596454769616563384_" gradientUnits="userSpaceOnUse" x1="138.7739" y1="25.9423" x2="132.3591" y2="66.3557">		<stop offset="0" style="stop-color:#0069B4"></stop>		<stop offset="0.508" style="stop-color:#005DAA"></stop>		<stop offset="1" style="stop-color:#004F9F"></stop>	</linearGradient>	<path style="fill:url(#SVGID_00000076561373918467977600000003596454769616563384_);" d="M207.7,48.5l0.7-2.5l1.5,0l-2.5-1.7v-4.2  h0.6l-4.9-1.5h-0.2v-2.1h-0.3c-0.9-2.4-4.1-4.3-7.8-4.3c-3.7,0-6.9,1.8-7.8,4.3H187v3.4h-19.6l-2.5,2l0,0h-8.1l-3.4-5.9l-7,0.9l0,0  c-0.4,0-1-0.1-1.9-0.1l0-3.9c0,0-7.5-1-20.8-1.5c-3.6-4.8-10.6-8.1-18.5-8.1c-8,0-14.9,3.3-18.5,8.1C72.5,32,62.7,32.9,61.7,33v4.3  c6.8-0.3,23.7-0.9,43.6-0.9c5.5,0,10.5,0,15,0.1c7.9,0.2,15.1,0.4,19.6,0.6c3.9,0.2,6.2,0.3,6.9,0.4l0,2c-2.2-0.1-23.9-1-41.5-1.1  c-14.8-0.1-35.7,0.7-43.6,1v6.9h5.6v1.9h-5.6v1.5l5.6,0l0.6,0.3v17.9h-4.5v-2.6h-1.8V70h1.8h78.4h3h9.2h3h50.6v-1.9h-0.4V48.5  H207.7z M105.4,31.1c-4.5,0-8.8,0.1-12.8,0.2c2.9-3.7,8.7-6.2,15.4-6.2c6.8,0,12.7,2.6,15.6,6.4C118.4,31.2,112.3,31.1,105.4,31.1z   M187.4,36.9h15.3v1.7H195l-4.6,1.3h-3V36.9z M167.5,40.2H187h16.1h4.1v3.8h-39.4l-1.9-2.1h-0.4L167.5,40.2z M146.8,42L146.8,42  L146.8,42L146.8,42z M67.8,40.2c0,0,16.2-1.1,36.8-1.1c20.5,0,32.8,1.1,32.8,1.1l0,4.5c0,0-18.1-0.9-32.8-1.2  c-14.8-0.3-36.8,1.3-36.8,1.3V40.2z M67.7,47.8l0-1.8c1.8-0.1,17.4-1,36.6-1c19,0,31.1,0.9,32.6,1l0,1.8h-2v0c-1.6-0.1-4-0.2-7-0.3  v-0.3h-2.3v0.2c-6.3-0.3-14.3-0.5-21.4-0.6c-7.8-0.1-17.8,0.3-25.3,0.6v-0.2h-2.3v0.3c-2.7,0.1-5,0.2-6.6,0.3v0H67.7z M69.6,68.1  h-1.5V49h1.5V68.1z M69.7,48.7H68v-0.5h1.6V48.7z M76.9,67.9h-7.1v-0.3l0.4-16.4l0.5,0.3l0.7,0.3V50h2.1v2.5h-0.1l2.6,1.1v14.2  L76.9,67.9L76.9,67.9z M76.9,67.4h-0.6v-0.6h0.6V67.4z M76.9,66.3h-0.6v-0.6h0.6V66.3z M76.9,65.2h-0.6v-0.6h0.6V65.2z M76.9,64.1  h-0.6v-0.6h0.6V64.1z M76.9,63.1h-0.6v-0.6h0.6V63.1z M76.9,62h-0.6v-0.6h0.6V62z M76.9,60.9h-0.6v-0.6h0.6V60.9z M76.9,59.7h-0.6  v-0.6h0.6V59.7z M78.3,67.9h-1.1V48.5h1.1V67.9z M78.6,48.1H77v-0.5h1.6V48.1z M86.3,67.9h-7.6v0L86.3,67.9L86.3,67.9z M86.3,67.4  h-7.6v-0.6h7.6V67.4z M86.3,66.3h-7.6v-0.6h7.6V66.3z M86.3,65.2h-7.6v-0.6h7.6V65.2z M86.3,64.1h-7.6v-0.6h7.6V64.1z M86.3,63.1  h-7.6v-0.6h7.6V63.1z M86.3,62h-7.6v-0.6h7.6V62z M86.3,60.9h-7.6v-0.6h7.6V60.9z M86.3,59.7h-7.6v-0.6h7.6V59.7z M87.8,67.9h-1.1  V48.5h1.1V67.9z M88,48.1h-1.6v-0.5H88V48.1z M92.1,67.9h-4v0L92.1,67.9L92.1,67.9z M92.1,67.4h-4v-0.6h4V67.4z M92.1,66.3h-4v-0.6  h4V66.3z M92.1,65.2h-4v-0.6h4V65.2z M92.1,64.1h-4v-0.6h4V64.1z M96.2,67.9h-0.9v0L96.2,67.9L96.2,67.9z M96.2,67.4h-0.9v-0.6h0.9  V67.4z M96.2,66.3h-0.9v-0.6h0.9V66.3z M96.2,65.2h-0.9v-0.6h0.9V65.2z M96.2,64.1h-0.9v-0.6h0.9V64.1z M96.2,63.1h-8.1v-0.6h8.1  V63.1z M96.2,62h-8.1v-0.6h8.1V62z M96.2,60.9h-8.1v-0.6h8.1V60.9z M96.2,59.7h-8.1v-0.6h8.1V59.7z M97.7,67.9h-1.1V48.5h1.1V67.9z   M97.9,48.1h-1.6v-0.5h1.6V48.1z M100.9,67.9H98v0L100.9,67.9L100.9,67.9z M100.9,67.4H98v-0.6h2.8V67.4z M100.9,66.3H98v-0.6h2.8  V66.3z M100.9,65.2H98v-0.6h2.8V65.2z M100.9,64.1H98v-0.6h2.8V64.1z M106.2,67.9H104v0L106.2,67.9L106.2,67.9z M106.2,67.4H104  v-0.6h2.2V67.4z M106.2,66.3H104v-0.6h2.2V66.3z M106.2,65.2H104v-0.6h2.2V65.2z M106.2,64.1H104v-0.6h2.2V64.1z M106.2,63.1H98  v-0.6h8.2V63.1z M106.2,62H98v-0.6h8.2V62z M106.2,60.9H98v-0.6h8.2V60.9z M106.2,59.7H98v-0.6h8.2V59.7z M107.7,67.9h-1.1V48.5  h1.1V67.9z M107.9,48.1h-1.6v-0.5h1.6V48.1z M109.5,67.9H108v0L109.5,67.9L109.5,67.9z M109.5,67.4H108v-0.6h1.5V67.4z M109.5,66.3  H108v-0.6h1.5V66.3z M109.5,65.2H108v-0.6h1.5V65.2z M109.5,64.1H108v-0.6h1.5V64.1z M116.2,67.9h-3.5v0L116.2,67.9L116.2,67.9z   M116.2,67.4h-3.5v-0.6h3.5V67.4z M116.2,66.3h-3.5v-0.6h3.5V66.3z M116.2,65.2h-3.5v-0.6h3.5V65.2z M116.2,64.1h-3.5v-0.6h3.5  V64.1z M116.2,63.1H108v-0.6h8.2V63.1z M116.2,62H108v-0.6h8.2V62z M116.2,60.9H108v-0.6h8.2V60.9z M116.2,59.7H108v-0.6h8.2V59.7z   M117.7,67.9h-1.1V48.5h1.1V67.9z M117.9,48.1h-1.6v-0.5h1.6V48.1z M125.9,67.9H118v0L125.9,67.9L125.9,67.9z M125.9,67.4H118v-0.6  h7.9V67.4z M125.9,66.3H118v-0.6h7.9V66.3z M125.9,65.2H118v-0.6h7.9V65.2z M125.9,64.1H118v-0.6h7.9V64.1z M125.9,63.1H118v-0.6  h7.9V63.1z M125.9,62H118v-0.6h7.9V62z M125.9,60.9H118v-0.6h7.9V60.9z M125.9,59.7H118v-0.6h7.9V59.7z M127.4,67.9h-1.1V48.5h1.1  V67.9z M127.6,48.1H126v-0.5h1.6V48.1z M127.7,67.9v-8.8h1.2v-5.4l2.9-1.2h-0.1V50h2.1v1.7l0.3-0.1l1,16.3H127.7z M136.7,67.9h-1.1  V49h1.1V67.9z M136.9,48.7h-1.6v-0.5h1.6V48.7z M169.3,67.9h-12.2v-2.6h-3v2.6h-9.2v-2.6h-3v2.6H137V50.3l0.8-0.4l7.4-0.9h23.3  l0.8,12.6V67.9z M170.8,67.9h-1.1V49.1h1.1V67.9z M182.6,67.9h-11.4V49.1h11.4V67.9z M184,67.9h-1.1V49.1h1.1V67.9z M191.3,67.9  h-6.9V49.1h6.9V67.9z M192.8,67.9h-1.1V49.1h1.1V67.9z M204.7,67.9h-11.5V49.1h11.5V67.9z M206.1,67.9H205V48.7h1.1V67.9z   M207,67.9h-0.5V48.5h0.5V67.9z M137.3,48.2L137.3,48.2l0-0.3h0l0-1.7h70.8l-0.6,2H137.3z"></path></g><path class="st25" d="M63,0h2.2v0.6H63c-0.2,0-0.3,0-0.3,0.1s-0.1,0.2-0.1,0.4v4.4c0,0.2,0,0.3,0.1,0.4C62.7,5.9,62.8,6,63,6h2.2 v0.6H63c-0.4,0-0.7-0.1-0.8-0.2c-0.2-0.2-0.3-0.4-0.3-0.8V1.1c0-0.4,0.1-0.7,0.3-0.8C62.3,0.1,62.6,0,63,0z"></path><path class="st25" d="M69.4,6.6h-0.7V2.7h0L67,6.2c-0.1,0.3-0.3,0.4-0.6,0.4c-0.2,0-0.3,0-0.4-0.1c-0.1-0.1-0.1-0.2-0.1-0.4V1.9h0.7 v3.9h0l1.8-3.6c0.1-0.2,0.3-0.3,0.6-0.3c0.1,0,0.3,0,0.4,0.1c0.1,0.1,0.1,0.2,0.1,0.4V6.6z"></path><path class="st25" d="M72.8,6.6h-1.5c-0.4,0-0.6-0.1-0.8-0.2c-0.2-0.2-0.2-0.4-0.2-0.8V1c0-0.3,0.1-0.6,0.2-0.8 C70.7,0.1,71,0,71.3,0h2.2v0.6h-2.2c-0.1,0-0.2,0-0.3,0.1C71,0.8,71,0.9,71,1v0.9h1.8c0.3,0,0.6,0.1,0.8,0.2 c0.2,0.2,0.2,0.4,0.2,0.8v2.7c0,0.4-0.1,0.6-0.2,0.8C73.4,6.5,73.1,6.6,72.8,6.6z M71,2.5v3.1c0,0.1,0,0.2,0.1,0.3 C71.1,6,71.2,6,71.3,6h1.5c0.1,0,0.2,0,0.3-0.1s0.1-0.2,0.1-0.3V2.9c0-0.1,0-0.2-0.1-0.3c-0.1-0.1-0.1-0.1-0.3-0.1H71z"></path><path class="st25" d="M78.2,6.6h-0.7V2.7h0l-1.7,3.5c-0.1,0.3-0.3,0.4-0.6,0.4c-0.2,0-0.3,0-0.4-0.1c-0.1-0.1-0.1-0.2-0.1-0.4V1.9 h0.7v3.9h0l1.8-3.6c0.1-0.2,0.3-0.3,0.6-0.3c0.1,0,0.3,0,0.4,0.1c0.1,0.1,0.1,0.2,0.1,0.4V6.6z"></path><path class="st25" d="M79.8,8.5h-0.7V2.9c0-0.4,0.1-0.6,0.2-0.8s0.4-0.2,0.8-0.2h1.5c0.3,0,0.6,0.1,0.8,0.2c0.2,0.2,0.2,0.4,0.2,0.8 v2.7c0,0.4-0.1,0.6-0.2,0.8c-0.2,0.2-0.4,0.2-0.8,0.2h-1.8V8.5z M81.6,2.5h-1.5c-0.1,0-0.2,0-0.3,0.1c0,0.1-0.1,0.2-0.1,0.3V6h1.8 c0.1,0,0.2,0,0.3-0.1S82,5.7,82,5.6V2.9c0-0.1,0-0.2-0.1-0.3C81.8,2.5,81.7,2.5,81.6,2.5z"></path><path class="st25" d="M83.5,5.6V2.9c0-0.4,0.1-0.6,0.2-0.8c0.2-0.2,0.4-0.2,0.8-0.2h1.7v0.6h-1.7c-0.1,0-0.2,0-0.3,0.1 c0,0.1-0.1,0.2-0.1,0.3v2.7c0,0.1,0,0.2,0.1,0.3C84.3,6,84.4,6,84.5,6h1.7v0.6h-1.7c-0.3,0-0.6-0.1-0.8-0.2 C83.6,6.2,83.5,5.9,83.5,5.6z"></path><path class="st25" d="M89.2,4.4h-1.7v2.2h-0.7V1.9h0.7v1.9h0.2l1.7-1.9h0.8l-1.7,1.9h0.6c0.2,0,0.4,0,0.6,0.1 C89.9,4,90,4.1,90.1,4.3s0.1,0.3,0.1,0.6v1.8h-0.7V4.8c0-0.1,0-0.2-0.1-0.3S89.3,4.4,89.2,4.4z"></path><path class="st25" d="M90.9,5.6V4.8c0-0.3,0.1-0.6,0.2-0.8c0.2-0.2,0.4-0.2,0.8-0.2h1.7V2.9c0-0.1,0-0.2-0.1-0.3 c-0.1-0.1-0.1-0.1-0.3-0.1h-2.2V1.9h2.2c0.3,0,0.6,0.1,0.8,0.2s0.2,0.4,0.2,0.8v2.7c0,0.4-0.1,0.6-0.2,0.8c-0.2,0.2-0.4,0.2-0.8,0.2 h-1.4c-0.4,0-0.6-0.1-0.8-0.2C90.9,6.2,90.9,5.9,90.9,5.6z M93.6,5.6V4.4h-1.7c-0.1,0-0.2,0-0.2,0.1s-0.1,0.1-0.1,0.1 c0,0.1,0,0.1,0,0.2v0.8c0,0.1,0,0.2,0.1,0.3C91.7,6,91.7,6,91.9,6h1.4c0.1,0,0.2,0,0.3-0.1C93.6,5.8,93.6,5.7,93.6,5.6z"></path><path class="st25" d="M98.4,6.6h-0.7V4.7h-0.4l-1.7,1.9h-0.8l1.7-1.9H96c-0.4,0-0.6-0.1-0.8-0.2C95.1,4.3,95,4,95,3.7V2.9 c0-0.4,0.1-0.6,0.2-0.8C95.4,2,95.7,1.9,96,1.9h1.4c0.3,0,0.6,0.1,0.8,0.2c0.2,0.2,0.2,0.4,0.2,0.8V6.6z M97.4,2.5H96 c-0.1,0-0.2,0-0.2,0.1c-0.1,0-0.1,0.1-0.1,0.1c0,0.1,0,0.1,0,0.2v0.8c0,0.1,0,0.2,0.1,0.3c0.1,0.1,0.1,0.1,0.3,0.1h1.7V2.9 c0-0.1,0-0.2-0.1-0.3C97.6,2.5,97.5,2.5,97.4,2.5z"></path><path class="st25" d="M103.9,2.5h-1.4c-0.1,0-0.2,0-0.3,0.1c0,0.1-0.1,0.2-0.1,0.3v3.7h-0.7V2.9c0-0.4,0.1-0.6,0.2-0.8 s0.4-0.2,0.8-0.2h1.4c0.2,0,0.4,0,0.6,0.1c0.1,0.1,0.3,0.2,0.3,0.3c0.1,0.1,0.1,0.3,0.1,0.6v3.7h-0.7V2.9c0-0.1,0-0.2-0.1-0.3 C104.1,2.5,104,2.5,103.9,2.5z"></path><path class="st25" d="M105.8,5.6V2.9c0-0.4,0.1-0.6,0.2-0.8c0.2-0.2,0.4-0.2,0.8-0.2h1.5c0.4,0,0.6,0.1,0.8,0.2 c0.2,0.2,0.2,0.4,0.2,0.8v2.7c0,0.4-0.1,0.6-0.2,0.8c-0.2,0.2-0.4,0.2-0.8,0.2h-1.5c-0.3,0-0.6-0.1-0.8-0.2 C105.9,6.2,105.8,5.9,105.8,5.6z M108.3,2.5h-1.5c-0.1,0-0.2,0-0.3,0.1c0,0.1-0.1,0.2-0.1,0.3v2.7c0,0.1,0,0.2,0.1,0.3 c0,0.1,0.1,0.1,0.3,0.1h1.5c0.1,0,0.2,0,0.3-0.1c0-0.1,0.1-0.2,0.1-0.3V2.9c0-0.1,0-0.2-0.1-0.3C108.5,2.5,108.4,2.5,108.3,2.5z"></path><path class="st25" d="M114.7,4.4h-1.5v2.2h-0.7V4.4H111c-0.1,0-0.2,0-0.3,0.1c0,0.1-0.1,0.2-0.1,0.3v1.8H110V4.8 c0-0.3,0.1-0.6,0.2-0.8c0.2-0.2,0.4-0.2,0.8-0.2h0.5L110,1.9h0.8l1.6,1.9h0.1V1.9h0.7v1.9h0.1l1.6-1.9h0.8l-1.6,1.9h0.5 c0.3,0,0.6,0.1,0.8,0.2c0.2,0.2,0.2,0.4,0.2,0.8v1.8H115V4.8c0-0.1,0-0.2,0-0.2c0-0.1-0.1-0.1-0.1-0.1 C114.8,4.4,114.7,4.4,114.7,4.4z"></path><path class="st25" d="M116.3,5.6V4.8c0-0.3,0.1-0.6,0.2-0.8c0.2-0.2,0.4-0.2,0.8-0.2h1.7V2.9c0-0.1,0-0.2-0.1-0.3 c-0.1-0.1-0.1-0.1-0.3-0.1h-2.2V1.9h2.2c0.3,0,0.6,0.1,0.8,0.2s0.2,0.4,0.2,0.8v2.7c0,0.4-0.1,0.6-0.2,0.8c-0.2,0.2-0.4,0.2-0.8,0.2 h-1.4c-0.4,0-0.6-0.1-0.8-0.2C116.4,6.2,116.3,5.9,116.3,5.6z M119.1,5.6V4.4h-1.7c-0.1,0-0.2,0-0.2,0.1s-0.1,0.1-0.1,0.1 c0,0.1,0,0.1,0,0.2v0.8c0,0.1,0,0.2,0.1,0.3c0.1,0.1,0.1,0.1,0.3,0.1h1.4c0.1,0,0.2,0,0.3-0.1S119.1,5.7,119.1,5.6z"></path><path class="st25" d="M121.3,8.5h-0.7V2.9c0-0.4,0.1-0.6,0.2-0.8c0.2-0.2,0.4-0.2,0.8-0.2h1.5c0.3,0,0.6,0.1,0.8,0.2 c0.2,0.2,0.2,0.4,0.2,0.8v2.7c0,0.4-0.1,0.6-0.2,0.8c-0.2,0.2-0.4,0.2-0.8,0.2h-1.8V8.5z M123.1,2.5h-1.5c-0.1,0-0.2,0-0.3,0.1 c0,0.1-0.1,0.2-0.1,0.3V6h1.8c0.1,0,0.2,0,0.3-0.1s0.1-0.2,0.1-0.3V2.9c0-0.1,0-0.2-0.1-0.3C123.3,2.5,123.2,2.5,123.1,2.5z"></path><path class="st25" d="M128.4,6.6h-0.7V4.4h-2v2.1H125V1.9h0.7v2h2v-2h0.7V6.6z"></path><path class="st25" d="M129.3,5.6V2.9c0-0.4,0.1-0.6,0.2-0.8c0.2-0.2,0.4-0.2,0.8-0.2h1.5c0.4,0,0.6,0.1,0.8,0.2s0.2,0.4,0.2,0.8v2.7 c0,0.4-0.1,0.6-0.2,0.8c-0.2,0.2-0.4,0.2-0.8,0.2h-1.5c-0.3,0-0.6-0.1-0.8-0.2C129.4,6.2,129.3,5.9,129.3,5.6z M131.8,2.5h-1.5 c-0.1,0-0.2,0-0.3,0.1c0,0.1-0.1,0.2-0.1,0.3v2.7c0,0.1,0,0.2,0.1,0.3c0,0.1,0.1,0.1,0.3,0.1h1.5c0.1,0,0.2,0,0.3-0.1 c0-0.1,0.1-0.2,0.1-0.3V2.9c0-0.1,0-0.2-0.1-0.3C132,2.5,131.9,2.5,131.8,2.5z"></path><path class="st25" d="M133.7,4.3V3.7h2.6v0.6H133.7z"></path><path class="st25" d="M61.7,15.5v-2.7c0-0.4,0.1-0.6,0.2-0.8c0.2-0.2,0.4-0.2,0.8-0.2h1.7v0.6h-1.7c-0.1,0-0.2,0-0.3,0.1 c0,0.1-0.1,0.2-0.1,0.3v2.7c0,0.1,0,0.2,0.1,0.3c0,0.1,0.1,0.1,0.3,0.1h1.7v0.6h-1.7c-0.3,0-0.6-0.1-0.8-0.2 C61.8,16.1,61.7,15.8,61.7,15.5z"></path><path class="st25" d="M67.4,12.4H66c-0.1,0-0.2,0-0.3,0.1c0,0.1-0.1,0.2-0.1,0.3v3.7H65v-3.7c0-0.4,0.1-0.6,0.2-0.8 c0.2-0.2,0.4-0.2,0.8-0.2h1.4c0.2,0,0.4,0,0.6,0.1c0.1,0.1,0.3,0.2,0.3,0.3c0.1,0.1,0.1,0.3,0.1,0.6v3.7h-0.7v-3.7 c0-0.1,0-0.2-0.1-0.3C67.6,12.4,67.5,12.4,67.4,12.4z"></path><path class="st25" d="M69.2,15.5v-0.8c0-0.3,0.1-0.6,0.2-0.8c0.2-0.2,0.4-0.2,0.8-0.2h1.7v-0.9c0-0.1,0-0.2-0.1-0.3 c-0.1-0.1-0.1-0.1-0.3-0.1h-2.2v-0.6h2.2c0.3,0,0.6,0.1,0.8,0.2c0.2,0.2,0.2,0.4,0.2,0.8v2.7c0,0.4-0.1,0.6-0.2,0.8 c-0.2,0.2-0.4,0.2-0.8,0.2h-1.4c-0.4,0-0.6-0.1-0.8-0.2C69.3,16.1,69.2,15.8,69.2,15.5z M71.9,15.5v-1.2h-1.7c-0.1,0-0.2,0-0.2,0.1 s-0.1,0.1-0.1,0.1c0,0.1,0,0.1,0,0.2v0.8c0,0.1,0,0.2,0.1,0.3c0.1,0.1,0.1,0.1,0.3,0.1h1.4c0.1,0,0.2,0,0.3-0.1 C71.9,15.7,71.9,15.6,71.9,15.5z"></path><path class="st25" d="M73.4,15.5v-2.7c0-0.4,0.1-0.6,0.2-0.8c0.2-0.2,0.4-0.2,0.8-0.2h1.7v0.6h-1.7c-0.1,0-0.2,0-0.3,0.1 c0,0.1-0.1,0.2-0.1,0.3v2.7c0,0.1,0,0.2,0.1,0.3c0,0.1,0.1,0.1,0.3,0.1h1.7v0.6h-1.7c-0.3,0-0.6-0.1-0.8-0.2 C73.5,16.1,73.4,15.8,73.4,15.5z"></path><path class="st25" d="M76.6,15.5v-0.8c0-0.3,0.1-0.6,0.2-0.8c0.2-0.2,0.4-0.2,0.8-0.2h1.7v-0.9c0-0.1,0-0.2-0.1-0.3 c-0.1-0.1-0.1-0.1-0.3-0.1h-2.2v-0.6H79c0.3,0,0.6,0.1,0.8,0.2s0.2,0.4,0.2,0.8v2.7c0,0.4-0.1,0.6-0.2,0.8c-0.2,0.2-0.4,0.2-0.8,0.2 h-1.4c-0.4,0-0.6-0.1-0.8-0.2C76.7,16.1,76.6,15.8,76.6,15.5z M79.3,15.5v-1.2h-1.7c-0.1,0-0.2,0-0.2,0.1s-0.1,0.1-0.1,0.1 c0,0.1,0,0.1,0,0.2v0.8c0,0.1,0,0.2,0.1,0.3c0.1,0.1,0.1,0.1,0.3,0.1H79c0.1,0,0.2,0,0.3-0.1C79.3,15.7,79.3,15.6,79.3,15.5z"></path><path class="st25" d="M82.6,16.5h-0.7v-4.1h-1.6v-0.6h3.8v0.6h-1.6V16.5z"></path><path class="st25" d="M87.9,12.8v0.7c0,0.3-0.1,0.6-0.2,0.8c-0.2,0.2-0.4,0.2-0.8,0.2h-1.7v1c0,0.1,0,0.2,0.1,0.3 c0,0.1,0.1,0.1,0.3,0.1h2.2v0.6h-2.2c-0.3,0-0.6-0.1-0.8-0.2c-0.2-0.2-0.2-0.4-0.2-0.8v-2.7c0-0.4,0.1-0.6,0.2-0.8 c0.2-0.2,0.4-0.2,0.8-0.2h1.4c0.4,0,0.6,0.1,0.8,0.2C87.9,12.2,87.9,12.4,87.9,12.8z M85.2,12.8v1.1h1.7c0.1,0,0.2,0,0.3-0.1 c0.1-0.1,0.1-0.2,0.1-0.3v-0.7c0-0.1,0-0.2-0.1-0.3c0-0.1-0.1-0.1-0.3-0.1h-1.4c-0.1,0-0.2,0-0.3,0.1C85.3,12.5,85.2,12.7,85.2,12.8 z"></path><path class="st25" d="M88.3,16.5l1.6-4.3c0-0.1,0.1-0.1,0.1-0.2c0-0.1,0.1-0.1,0.1-0.1c0,0,0.1,0,0.1-0.1c0,0,0.1,0,0.1,0 c0,0,0.1,0,0.1,0c0,0,0.1,0,0.1,0c0,0,0.1,0,0.1,0c0,0,0.1,0,0.1,0.1c0,0,0.1,0.1,0.1,0.1c0,0.1,0.1,0.1,0.1,0.2l1.6,4.3h-0.7 l-1.4-4h0l-1.4,4H88.3z"></path><path class="st25" d="M93,11.8h0.7v1.9h1.7c0.3,0,0.6,0.1,0.8,0.2c0.2,0.2,0.2,0.4,0.2,0.8v0.8c0,0.4-0.1,0.6-0.2,0.8 c-0.2,0.2-0.4,0.2-0.8,0.2H94c-0.4,0-0.6-0.1-0.8-0.2c-0.2-0.2-0.2-0.4-0.2-0.8V11.8z M94,15.9h1.4c0.1,0,0.2,0,0.3-0.1 c0.1-0.1,0.1-0.2,0.1-0.3v-0.8c0-0.1,0-0.2-0.1-0.3c-0.1-0.1-0.1-0.1-0.3-0.1h-1.7v1.2c0,0.1,0,0.2,0.1,0.3 C93.8,15.9,93.9,15.9,94,15.9z"></path><path class="st25" d="M100.6,16.5h-0.7v-2.1h-2v2.1h-0.7v-4.7h0.7v2h2v-2h0.7V16.5z"></path><path class="st25" d="M101.4,15.5v-0.8c0-0.3,0.1-0.6,0.2-0.8c0.2-0.2,0.4-0.2,0.8-0.2h1.7v-0.9c0-0.1,0-0.2-0.1-0.3 c-0.1-0.1-0.1-0.1-0.3-0.1h-2.2v-0.6h2.2c0.3,0,0.6,0.1,0.8,0.2s0.2,0.4,0.2,0.8v2.7c0,0.4-0.1,0.6-0.2,0.8 c-0.2,0.2-0.4,0.2-0.8,0.2h-1.4c-0.4,0-0.6-0.1-0.8-0.2C101.5,16.1,101.4,15.8,101.4,15.5z M104.1,15.5v-1.2h-1.7 c-0.1,0-0.2,0-0.2,0.1s-0.1,0.1-0.1,0.1c0,0.1,0,0.1,0,0.2v0.8c0,0.1,0,0.2,0.1,0.3c0.1,0.1,0.1,0.1,0.3,0.1h1.4 c0.1,0,0.2,0,0.3-0.1C104.1,15.7,104.1,15.6,104.1,15.5z"></path><path class="st25" d="M108.9,16.5h-0.7v-1.9h-0.4l-1.7,1.9h-0.8l1.7-1.9h-0.5c-0.4,0-0.6-0.1-0.8-0.2c-0.2-0.2-0.2-0.4-0.2-0.8v-0.8 c0-0.4,0.1-0.6,0.2-0.8c0.2-0.2,0.4-0.2,0.8-0.2h1.4c0.3,0,0.6,0.1,0.8,0.2c0.2,0.2,0.2,0.4,0.2,0.8V16.5z M107.9,12.4h-1.4 c-0.1,0-0.2,0-0.2,0.1s-0.1,0.1-0.1,0.1c0,0.1,0,0.1,0,0.2v0.8c0,0.1,0,0.2,0.1,0.3c0.1,0.1,0.1,0.1,0.3,0.1h1.7v-1.2 c0-0.1,0-0.2-0.1-0.3C108.2,12.4,108.1,12.4,107.9,12.4z"></path><path class="st25" d="M111.9,15.5v-0.8c0-0.3,0.1-0.6,0.2-0.8s0.4-0.2,0.8-0.2h1.7v-0.9c0-0.1,0-0.2-0.1-0.3 c-0.1-0.1-0.1-0.1-0.3-0.1h-2.2v-0.6h2.2c0.3,0,0.6,0.1,0.8,0.2c0.2,0.2,0.2,0.4,0.2,0.8v2.7c0,0.4-0.1,0.6-0.2,0.8 c-0.2,0.2-0.4,0.2-0.8,0.2h-1.4c-0.4,0-0.6-0.1-0.8-0.2C112,16.1,111.9,15.8,111.9,15.5z M114.6,15.5v-1.2h-1.7 c-0.1,0-0.2,0-0.2,0.1s-0.1,0.1-0.1,0.1c0,0.1,0,0.1,0,0.2v0.8c0,0.1,0,0.2,0.1,0.3c0.1,0.1,0.1,0.1,0.3,0.1h1.4 c0.1,0,0.2,0,0.3-0.1C114.6,15.7,114.6,15.6,114.6,15.5z"></path><path class="st25" d="M118.6,14.3h-1.7v2.2h-0.7v-4.7h0.7v1.9h0.2l1.7-1.9h0.8l-1.7,1.9h0.6c0.2,0,0.4,0,0.6,0.1 c0.1,0.1,0.3,0.2,0.3,0.3c0.1,0.1,0.1,0.3,0.1,0.6v1.8h-0.7v-1.8c0-0.1,0-0.2-0.1-0.3C118.8,14.4,118.7,14.3,118.6,14.3z"></path><path class="st25" d="M120.3,15.5v-0.8c0-0.3,0.1-0.6,0.2-0.8s0.4-0.2,0.8-0.2h1.7v-0.9c0-0.1,0-0.2-0.1-0.3 c-0.1-0.1-0.1-0.1-0.3-0.1h-2.2v-0.6h2.2c0.3,0,0.6,0.1,0.8,0.2c0.2,0.2,0.2,0.4,0.2,0.8v2.7c0,0.4-0.1,0.6-0.2,0.8 c-0.2,0.2-0.4,0.2-0.8,0.2h-1.4c-0.4,0-0.6-0.1-0.8-0.2C120.3,16.1,120.3,15.8,120.3,15.5z M123,15.5v-1.2h-1.7 c-0.1,0-0.2,0-0.2,0.1s-0.1,0.1-0.1,0.1c0,0.1,0,0.1,0,0.2v0.8c0,0.1,0,0.2,0.1,0.3c0.1,0.1,0.1,0.1,0.3,0.1h1.4 c0.1,0,0.2,0,0.3-0.1C122.9,15.7,123,15.6,123,15.5z"></path><path class="st25" d="M128.6,16.5h-3.8v1.3h-0.7v-1.9h0.6l1.4-3.7c0.1-0.3,0.3-0.4,0.6-0.4c0.3,0,0.5,0.1,0.6,0.4l1.4,3.7h0.6v1.9 h-0.7V16.5z M126.7,12.5l-1.2,3.4h2.5L126.7,12.5L126.7,12.5z"></path><path class="st25" d="M133.1,12.8v0.7c0,0.3-0.1,0.6-0.2,0.8c-0.2,0.2-0.4,0.2-0.8,0.2h-1.7v1c0,0.1,0,0.2,0.1,0.3 c0,0.1,0.1,0.1,0.3,0.1h2.2v0.6h-2.2c-0.3,0-0.6-0.1-0.8-0.2c-0.2-0.2-0.2-0.4-0.2-0.8v-2.7c0-0.4,0.1-0.6,0.2-0.8 c0.2-0.2,0.4-0.2,0.8-0.2h1.4c0.4,0,0.6,0.1,0.8,0.2C133,12.2,133.1,12.4,133.1,12.8z M130.4,12.8v1.1h1.7c0.1,0,0.2,0,0.3-0.1 c0.1-0.1,0.1-0.2,0.1-0.3v-0.7c0-0.1,0-0.2-0.1-0.3c0-0.1-0.1-0.1-0.3-0.1h-1.4c-0.1,0-0.2,0-0.3,0.1 C130.4,12.5,130.4,12.7,130.4,12.8z"></path><path class="st25" d="M138.1,16.5h-0.7v-3.9h0l-0.9,1.9c-0.1,0.1-0.1,0.2-0.2,0.3c-0.1,0.1-0.2,0.1-0.3,0.1c-0.2,0-0.4-0.1-0.5-0.4 l-0.9-1.9h0v3.9h-0.7v-4.2c0-0.2,0-0.3,0.1-0.4c0.1-0.1,0.2-0.1,0.4-0.1c0.2,0,0.3,0,0.4,0.1c0.1,0.1,0.2,0.2,0.2,0.4l0.9,1.9h0 l0.9-1.9c0.1-0.2,0.2-0.3,0.3-0.4c0.1-0.1,0.2-0.1,0.4-0.1c0.2,0,0.3,0,0.4,0.1c0.1,0.1,0.2,0.2,0.2,0.4V16.5z"></path><path class="st25" d="M142.5,16.5h-0.7v-3.8h0l-1.7,3.5c-0.1,0.3-0.3,0.4-0.6,0.4c-0.2,0-0.3,0-0.4-0.1c-0.1-0.1-0.1-0.2-0.1-0.4 v-4.2h0.7v3.9h0l1.8-3.6c0.1-0.2,0.3-0.3,0.6-0.3c0.1,0,0.3,0,0.4,0.1c0.1,0.1,0.1,0.2,0.1,0.4V16.5z"></path><path class="st25" d="M146.7,16.5h-0.7v-1.9h-0.4l-1.7,1.9h-0.8l1.7-1.9h-0.5c-0.3,0-0.6-0.1-0.8-0.2c-0.2-0.2-0.2-0.4-0.2-0.8v-0.8 c0-0.4,0.1-0.6,0.2-0.8c0.2-0.2,0.4-0.2,0.8-0.2h1.4c0.3,0,0.6,0.1,0.8,0.2c0.2,0.2,0.2,0.4,0.2,0.8V16.5z M145.7,12.4h-1.4 c-0.1,0-0.2,0-0.2,0.1c-0.1,0-0.1,0.1-0.1,0.1c0,0.1,0,0.1,0,0.2v0.8c0,0.1,0,0.2,0.1,0.3c0,0.1,0.1,0.1,0.3,0.1h1.7v-1.2 c0-0.1,0-0.2-0.1-0.3C146,12.4,145.9,12.4,145.7,12.4z"></path><path class="st25" d="M151.1,9.9h2.4v0.6h-2.4c-0.1,0-0.1,0-0.2,0c0,0-0.1,0-0.1,0c0,0-0.1,0.1-0.1,0.1c0,0,0,0.1,0,0.1 c0,0,0,0.1,0,0.2v5.5H150V11c0-0.4,0.1-0.7,0.2-0.8C150.5,10,150.7,9.9,151.1,9.9z"></path><path class="st25" d="M158.3,16.5h-0.7V11c0-0.2,0-0.3-0.1-0.4c-0.1-0.1-0.2-0.1-0.3-0.1h-1.9c-0.1,0-0.1,0-0.2,0c0,0-0.1,0-0.1,0 c0,0-0.1,0.1-0.1,0.1c0,0,0,0.1,0,0.1c0,0,0,0.1,0,0.2v5.5h-0.7V11c0-0.4,0.1-0.7,0.2-0.8c0.2-0.2,0.4-0.2,0.8-0.2h1.9 c0.4,0,0.7,0.1,0.8,0.2c0.2,0.2,0.2,0.4,0.2,0.8V16.5z"></path><path class="st25" d="M160.7,9.9h2.2v0.6h-2.2c-0.2,0-0.3,0-0.3,0.1c-0.1,0.1-0.1,0.2-0.1,0.4v4.4c0,0.2,0,0.3,0.1,0.4 c0.1,0.1,0.2,0.1,0.3,0.1h2.2v0.6h-2.2c-0.4,0-0.7-0.1-0.8-0.2c-0.2-0.2-0.3-0.4-0.3-0.8V11c0-0.4,0.1-0.7,0.3-0.8 S160.3,9.9,160.7,9.9z"></path><path class="st25" d="M170.9,16.5h-0.7v-5.8h0l-1,2.5c-0.1,0.2-0.2,0.4-0.3,0.5c-0.1,0.1-0.3,0.2-0.4,0.2c-0.2,0-0.3-0.1-0.4-0.2 c-0.1-0.1-0.2-0.3-0.3-0.5l-1-2.5h0v5.8h-0.7v-6c0-0.2,0.1-0.4,0.2-0.5c0.1-0.1,0.3-0.2,0.5-0.2c0.2,0,0.3,0.1,0.5,0.2 c0.1,0.1,0.2,0.3,0.3,0.6l1,2.5h0l1-2.5c0.1-0.3,0.2-0.5,0.4-0.6c0.1-0.1,0.3-0.2,0.4-0.2c0.2,0,0.4,0.1,0.5,0.2 c0.1,0.1,0.2,0.3,0.2,0.5V16.5z"></path><path class="st25" d="M172,9.9h0.7v2.7c0,0.2,0,0.3,0.1,0.4c0.1,0.1,0.2,0.1,0.3,0.1h2.2V9.9h0.7v6.6h-0.7v-2.8h-2.2 c-0.4,0-0.7-0.1-0.8-0.2c-0.2-0.2-0.2-0.4-0.2-0.8V9.9z"></path><path class="st25" d="M178.4,9.9h2.2v0.6h-2.2c-0.2,0-0.3,0-0.3,0.1c-0.1,0.1-0.1,0.2-0.1,0.4v4.4c0,0.2,0,0.3,0.1,0.4 c0.1,0.1,0.2,0.1,0.3,0.1h2.2v0.6h-2.2c-0.4,0-0.7-0.1-0.8-0.2c-0.2-0.2-0.3-0.4-0.3-0.8V11c0-0.4,0.1-0.7,0.3-0.8 S178,9.9,178.4,9.9z"></path><path class="st25" d="M184.4,16.5h-0.7V11c0-0.4,0.1-0.7,0.2-0.8s0.4-0.2,0.8-0.2h1.9c0.4,0,0.7,0.1,0.8,0.2 c0.2,0.2,0.2,0.4,0.2,0.8v1.8c0,0.4-0.1,0.7-0.2,0.8c-0.2,0.2-0.4,0.2-0.8,0.2h-2.3V16.5z M186.7,10.5h-1.9c-0.1,0-0.1,0-0.2,0 c0,0-0.1,0-0.1,0c0,0-0.1,0.1-0.1,0.1c0,0,0,0.1,0,0.1c0,0,0,0.1,0,0.2v2.2h2.3c0.2,0,0.3,0,0.3-0.1c0.1-0.1,0.1-0.2,0.1-0.4V11 c0-0.2,0-0.3-0.1-0.4C187,10.6,186.9,10.5,186.7,10.5z"></path><path class="st25" d="M188.6,15.5v-2.7c0-0.4,0.1-0.6,0.2-0.8c0.2-0.2,0.4-0.2,0.8-0.2h1.5c0.4,0,0.6,0.1,0.8,0.2s0.2,0.4,0.2,0.8 v2.7c0,0.4-0.1,0.6-0.2,0.8c-0.2,0.2-0.4,0.2-0.8,0.2h-1.5c-0.3,0-0.6-0.1-0.8-0.2C188.7,16.1,188.6,15.8,188.6,15.5z M191.1,12.4 h-1.5c-0.1,0-0.2,0-0.3,0.1c0,0.1-0.1,0.2-0.1,0.3v2.7c0,0.1,0,0.2,0.1,0.3c0,0.1,0.1,0.1,0.3,0.1h1.5c0.1,0,0.2,0,0.3-0.1 c0-0.1,0.1-0.2,0.1-0.3v-2.7c0-0.1,0-0.2-0.1-0.3C191.3,12.4,191.2,12.4,191.1,12.4z"></path><path class="st25" d="M192.9,15.5v-2.7c0-0.4,0.1-0.6,0.2-0.8c0.2-0.2,0.4-0.2,0.8-0.2h1.7v0.6h-1.7c-0.1,0-0.2,0-0.3,0.1 c0,0.1-0.1,0.2-0.1,0.3v2.7c0,0.1,0,0.2,0.1,0.3c0,0.1,0.1,0.1,0.3,0.1h1.7v0.6h-1.7c-0.3,0-0.6-0.1-0.8-0.2 C193,16.1,192.9,15.8,192.9,15.5z"></path><path class="st25" d="M196.2,15.5v-2.7c0-0.4,0.1-0.6,0.2-0.8c0.2-0.2,0.4-0.2,0.8-0.2h1.7v0.6h-1.7c-0.1,0-0.2,0-0.3,0.1 c0,0.1-0.1,0.2-0.1,0.3v2.7c0,0.1,0,0.2,0.1,0.3c0,0.1,0.1,0.1,0.3,0.1h1.7v0.6h-1.7c-0.3,0-0.6-0.1-0.8-0.2 C196.3,16.1,196.2,15.8,196.2,15.5z"></path><path class="st25" d="M203.1,16.5h-0.7v-3.8h0l-1.7,3.5c-0.1,0.3-0.3,0.4-0.6,0.4c-0.2,0-0.3,0-0.4-0.1c-0.1-0.1-0.1-0.2-0.1-0.4 v-4.2h0.7v3.9h0l1.8-3.6c0.1-0.2,0.3-0.3,0.6-0.3c0.1,0,0.3,0,0.4,0.1c0.1,0.1,0.1,0.2,0.1,0.4V16.5z"></path><path class="st25" d="M207.5,16.5h-0.7v-3.8h0l-1.7,3.5c-0.1,0.3-0.3,0.4-0.6,0.4c-0.2,0-0.3,0-0.4-0.1c-0.1-0.1-0.1-0.2-0.1-0.4 v-4.2h0.7v3.9h0l1.8-3.6c0.1-0.2,0.3-0.3,0.6-0.3c0.1,0,0.3,0,0.4,0.1c0.1,0.1,0.1,0.2,0.1,0.4V16.5z"></path><linearGradient id="SVGID_00000076564135759883025260000014338262885591335846_" gradientUnits="userSpaceOnUse" x1="68.0005" y1="16.2566" x2="60.7913" y2="61.6749">	<stop offset="0" style="stop-color:#0069B4"></stop>	<stop offset="0.508" style="stop-color:#005DAA"></stop>	<stop offset="1" style="stop-color:#004F9F"></stop></linearGradient><rect x="61.7" y="50" style="fill:url(#SVGID_00000076564135759883025260000014338262885591335846_);" width="1.2" height="4.6"></rect><g>	<g>		<path class="st27" d="M39.1,18.8l2.4-6.6c0-0.1,0.1-0.2,0.2-0.3c0.1-0.1,0.1-0.2,0.2-0.2c0.1,0,0.1-0.1,0.2-0.1c0.1,0,0.1,0,0.2,0   c0,0,0.1,0,0.1,0c0.1,0,0.1,0,0.1,0s0.1,0,0.2,0c0.1,0,0.1,0.1,0.2,0.1c0.1,0,0.1,0.1,0.2,0.2c0.1,0.1,0.1,0.2,0.2,0.3l2.4,6.6   h-1.1l-2.1-6.1h-0.1l-2.1,6.1H39.1z"></path>		<path class="st27" d="M51.4,13.1v1.1c0,0.5-0.1,0.9-0.4,1.2c-0.2,0.2-0.6,0.4-1.2,0.4h-2.6v1.5c0,0.2,0,0.4,0.1,0.5   c0.1,0.1,0.2,0.2,0.4,0.2h3.4v0.9h-3.4c-0.5,0-0.9-0.1-1.2-0.4c-0.2-0.2-0.4-0.6-0.4-1.2v-4.1c0-0.5,0.1-0.9,0.4-1.2   c0.2-0.2,0.6-0.4,1.2-0.4h2.1c0.5,0,0.9,0.1,1.2,0.4C51.3,12.2,51.4,12.6,51.4,13.1z M47.3,13.1v1.7h2.6c0.2,0,0.3-0.1,0.4-0.2   c0.1-0.1,0.1-0.3,0.1-0.5v-1.1c0-0.2,0-0.4-0.1-0.5c-0.1-0.1-0.2-0.2-0.4-0.2h-2.1c-0.2,0-0.3,0.1-0.4,0.2   C47.3,12.7,47.3,12.9,47.3,13.1z"></path>		<path class="st27" d="M55.3,18.8h-1v-6.3H52v-0.9h5.8v0.9h-2.4V18.8z"></path>	</g>			<linearGradient id="SVGID_00000158008592060482495660000013609207234607002013_" gradientUnits="userSpaceOnUse" x1="-0.4408" y1="22.6726" x2="54.124" y2="3.7167">		<stop offset="0" style="stop-color:#0069B4"></stop>		<stop offset="0.508" style="stop-color:#005DAA"></stop>		<stop offset="1" style="stop-color:#004F9F"></stop>	</linearGradient>	<polygon style="fill:url(#SVGID_00000158008592060482495660000013609207234607002013_);" points="22,12.9 22,12.9 6.7,18.5   3.3,19.7 0,21 0,24.5 3.3,23.3 6.7,22.1 22,16.5 22,16.5 25.4,15.3 25.4,11.7  "></polygon>			<linearGradient id="SVGID_00000000198669716051548180000003426800581300285583_" gradientUnits="userSpaceOnUse" x1="22.1323" y1="45.6225" x2="47.2888" y2="35.8788">		<stop offset="0" style="stop-color:#0069B4"></stop>		<stop offset="0.508" style="stop-color:#005DAA"></stop>		<stop offset="1" style="stop-color:#004F9F"></stop>	</linearGradient>	<polygon style="fill:url(#SVGID_00000000198669716051548180000003426800581300285583_);" points="22,70 25.4,70 25.4,18.8 22,20    "></polygon>			<linearGradient id="SVGID_00000053536342813915058360000008316937596638841745_" gradientUnits="userSpaceOnUse" x1="28.5457" y1="49.0744" x2="58.1311" y2="38.4449">		<stop offset="0" style="stop-color:#FCBD29"></stop>		<stop offset="0.2864" style="stop-color:#F69F22"></stop>		<stop offset="0.7698" style="stop-color:#ED6B1A"></stop>		<stop offset="1" style="stop-color:#E95418"></stop>	</linearGradient>	<path style="fill:url(#SVGID_00000053536342813915058360000008316937596638841745_);" d="M38.9,21.3v3.5  c8.9,2.6,15.3,10.8,15.3,20.5c0,11.8-9.5,21.3-21.3,21.3c-0.2,0-0.4,0-0.7,0V70c0.2,0,0.4,0,0.7,0c13.6,0,24.7-11.1,24.7-24.7  C57.6,33.7,49.6,24,38.9,21.3z"></path>			<linearGradient id="SVGID_00000054955118595809918950000014571231029877011886_" gradientUnits="userSpaceOnUse" x1="24.2077" y1="50.9807" x2="49.3642" y2="41.237">		<stop offset="0" style="stop-color:#0069B4"></stop>		<stop offset="0.508" style="stop-color:#005DAA"></stop>		<stop offset="1" style="stop-color:#004F9F"></stop>	</linearGradient>	<path style="fill:url(#SVGID_00000054955118595809918950000014571231029877011886_);" d="M48.3,45.3c0-6.4-3.9-11.9-9.4-14.2v3.7  c3.6,2.1,6.1,6,6.1,10.5c0,6.7-5.4,12.1-12.1,12.1c-0.2,0-0.4,0-0.7,0v3.4c0.2,0,0.4,0,0.7,0C41.4,60.7,48.3,53.8,48.3,45.3z"></path>			<linearGradient id="SVGID_00000114072036934226203540000012251817337142135168_" gradientUnits="userSpaceOnUse" x1="-0.6062" y1="22.1965" x2="53.9586" y2="3.2405">		<stop offset="0" style="stop-color:#FCBD29"></stop>		<stop offset="0.2864" style="stop-color:#F69F22"></stop>		<stop offset="0.7698" style="stop-color:#ED6B1A"></stop>		<stop offset="1" style="stop-color:#E95418"></stop>	</linearGradient>	<polygon style="fill:url(#SVGID_00000114072036934226203540000012251817337142135168_);" points="38.9,6.8 35.5,8 32.2,9.2   32.2,12.8 35.5,11.6 38.9,10.4 57.6,3.5 57.6,0  "></polygon>	<g>					<linearGradient id="SVGID_00000121279128904987465100000004803361954124079001_" gradientUnits="userSpaceOnUse" x1="16.6966" y1="31.5884" x2="41.853" y2="21.8447">			<stop offset="0" style="stop-color:#0069B4"></stop>			<stop offset="0.508" style="stop-color:#005DAA"></stop>			<stop offset="1" style="stop-color:#004F9F"></stop>		</linearGradient>		<path style="fill:url(#SVGID_00000121279128904987465100000004803361954124079001_);" d="M32.2,20.6V24v5.9v3.4c0.2,0,0.4,0,0.7,0   c0.9,0,1.8,0.1,2.7,0.3v-3.4v-6v-3.4v-5.6l-3.3,1.2V20.6z"></path>	</g></g></svg>